<svg width="21" height="21" viewBox="0 0 21 21" fill="none" xmlns="http://www.w3.org/2000/svg">
<path d="M19.4495 7.74432C19.4061 7.6889 19.3803 7.66211 19.3803 7.66211C19.3803 7.66211 19.3876 7.69906 19.4024 7.76834C19.4172 7.83669 19.4329 7.93923 19.4532 8.0667C19.4717 8.1951 19.4939 8.34936 19.5114 8.52671C19.528 8.70407 19.5465 8.90267 19.5548 9.11974C19.5641 9.33682 19.5696 9.57052 19.5631 9.81715C19.5604 10.0629 19.5447 10.3224 19.5225 10.5894C19.4994 10.8563 19.4643 11.1316 19.4218 11.4096C19.4033 11.5491 19.3701 11.6886 19.3488 11.829C19.3184 11.9685 19.2925 12.1098 19.2583 12.2502C19.1318 12.8119 18.9646 13.3679 18.7845 13.888C18.7383 14.0182 18.693 14.1457 18.6487 14.2713C18.6016 14.396 18.5535 14.518 18.511 14.6381C18.4658 14.7572 18.4159 14.8718 18.3725 14.9844C18.3503 15.0408 18.3291 15.0962 18.3078 15.1507C18.2847 15.2043 18.2616 15.2579 18.2395 15.3096C18.196 15.414 18.1545 15.5147 18.1157 15.6107C18.0769 15.7068 18.0335 15.7955 17.9984 15.8814C17.9254 16.0523 17.8635 16.2047 17.8081 16.3275C17.7536 16.4513 17.7148 16.552 17.6862 16.6194C17.6594 16.6878 17.6455 16.7247 17.6455 16.7247C17.6455 16.7247 17.6741 16.6979 17.7286 16.6471C17.7813 16.5954 17.8617 16.5215 17.9577 16.4227C18.0575 16.3257 18.1674 16.201 18.2921 16.0541C18.3549 15.9811 18.4214 15.9026 18.4889 15.8186C18.5535 15.7327 18.6219 15.6412 18.693 15.547C18.8371 15.3586 18.9729 15.1406 19.1188 14.9096C19.1881 14.7923 19.2555 14.6704 19.3267 14.5457C19.3978 14.421 19.4569 14.288 19.5253 14.1549C19.5946 14.0229 19.6481 13.8815 19.71 13.7411C19.7738 13.6007 19.8236 13.4548 19.8763 13.307C19.9834 13.0132 20.0675 12.7056 20.1414 12.3971C20.1765 12.2428 20.2024 12.0858 20.2328 11.9315C20.2559 11.7754 20.2781 11.6203 20.292 11.4651C20.3067 11.3108 20.3197 11.1575 20.3215 11.0051C20.3289 10.8536 20.328 10.7039 20.3215 10.5571C20.3114 10.2642 20.2836 9.9825 20.2384 9.72016C20.1959 9.45782 20.134 9.21488 20.0666 8.99504C19.9308 8.55535 19.759 8.21634 19.6213 7.9928C19.553 7.88011 19.4893 7.79882 19.4477 7.74247" fill="#11112D"/>
<path d="M5.02644 12.6798C5.02644 12.6798 5.02441 12.6788 5.02441 12.6819C5.02746 12.6839 5.02948 12.6839 5.02745 12.6809L5.02644 12.6798Z" fill="#11112D"/>
<path d="M16.9276 0.0599869L16.8805 0.07569L16.8694 0.143122L16.2866 4.11789C15.0137 2.66488 11.4324 -0.204197 4.1267 1.93329C3.90962 1.99703 3.82002 2.28246 3.96043 2.48475C4.03617 2.59375 4.16087 2.64918 4.27819 2.62054C11.2902 0.90242 14.9425 3.14799 16.2616 4.28416L16.2117 4.62502C15.8524 4.38023 15.4571 4.19456 15.0525 4.06894C14.3181 3.83893 13.556 3.76873 12.8069 3.7872C12.0559 3.81029 11.3132 3.92022 10.5863 4.09665C9.85838 4.27031 9.14805 4.51509 8.45433 4.80884C8.10886 4.95848 7.76708 5.12105 7.43177 5.29656C7.26458 5.38524 7.09646 5.47576 6.93204 5.57183L6.45262 5.8665L5.96675 6.19165L5.50212 6.52511L5.05042 6.87428C4.90077 6.99251 4.75575 7.11444 4.60796 7.23453C4.02232 7.71948 3.46439 8.23584 2.91939 8.76513C2.37347 9.29258 1.84972 9.84496 1.33336 10.3992C1.29642 10.4389 1.26039 10.4796 1.22344 10.5193C1.20589 10.2228 1.19758 9.91886 1.19388 9.62142C1.19388 9.24085 1.20497 8.8612 1.22713 8.48248C1.27794 7.72687 1.38232 6.97866 1.55875 6.25354C1.64835 5.89144 1.75181 5.53488 1.87651 5.18756C2.00122 4.84024 2.14717 4.50493 2.31159 4.18163C2.47601 3.85833 2.66814 3.55535 2.87967 3.27915C2.95172 3.18493 3.02839 3.09811 3.10691 3.01497C3.05703 3.1369 3.0053 3.25976 2.95265 3.38354C2.80116 3.74379 2.65336 4.10958 2.5185 4.48184C2.24785 5.22543 2.03262 5.99674 1.88852 6.7819C1.81555 7.17449 1.76567 7.57169 1.73334 7.97073C1.70193 8.36886 1.68992 8.76883 1.70193 9.16788C1.73611 8.7716 1.78599 8.37994 1.85527 7.9929C1.92455 7.60586 2.01415 7.22529 2.11576 6.85026C2.3199 6.09927 2.59701 5.3797 2.91293 4.68413C3.07088 4.33589 3.24085 3.99504 3.41635 3.65326C3.50318 3.48145 3.59186 3.31056 3.67962 3.12674C3.70086 3.07871 3.72303 3.03344 3.74427 2.98079C3.75444 2.95585 3.76552 2.93184 3.77753 2.89489C3.78954 2.86163 3.80155 2.82376 3.80617 2.80529C3.82464 2.73785 3.84219 2.66118 3.84127 2.5605C3.84035 2.50969 3.83387 2.4515 3.81355 2.38499C3.79323 2.31941 3.75259 2.24274 3.6907 2.1827C3.62974 2.12173 3.55399 2.08478 3.49025 2.06908C3.42559 2.05338 3.37017 2.05245 3.32214 2.05707C3.22792 2.06723 3.15772 2.09402 3.09583 2.12173C2.96466 2.18547 2.89261 2.24366 2.80578 2.30555C2.63951 2.43026 2.48802 2.56789 2.34669 2.71384C2.06403 3.00573 1.81924 3.33181 1.60125 3.67451C1.38232 4.01721 1.19204 4.37931 1.02392 4.75249C0.855803 5.12567 0.710778 5.51086 0.589771 5.90529C0.46784 6.2988 0.365304 6.69969 0.281245 7.10521C0.201805 7.51164 0.139917 7.92178 0.0918838 8.33283C0.00135911 9.15956 -0.0180406 9.98444 0.0152133 10.8204C0.0226031 11.0356 0.0383086 11.2315 0.0521644 11.4301L0.0595558 11.5418V11.5511L0.0641733 11.5908C0.0669444 11.6139 0.0706379 11.637 0.0743328 11.6592C0.106663 11.843 0.201807 12.0296 0.329281 12.1589C0.585151 12.4194 0.939861 12.4859 1.24838 12.351C1.28718 12.3335 1.31951 12.3187 1.37124 12.2827C1.41465 12.254 1.47654 12.2004 1.46915 12.2051L1.48208 12.1931L1.52734 12.1478L1.55136 12.1219L1.64835 12.0194L1.84141 11.8153L2.22476 11.4079C2.73373 10.8648 3.25378 10.3392 3.77568 9.82002C4.29943 9.30274 4.83612 8.80485 5.38204 8.32544C5.51967 8.20813 5.65638 8.08805 5.79586 7.97258L6.21523 7.63173L6.63922 7.30196L7.06136 6.99436L7.51029 6.69415C7.65901 6.59993 7.80865 6.50571 7.96106 6.41519C8.26497 6.23506 8.57441 6.0651 8.89033 5.90806C9.51938 5.58846 10.1715 5.31965 10.8366 5.09427C11.5026 4.8735 12.1834 4.69984 12.8734 4.60469C13.218 4.55574 13.5653 4.5271 13.9126 4.52525C14.2599 4.52064 14.6072 4.54373 14.9509 4.601C15.3619 4.67028 15.772 4.79313 16.1545 4.98619L16.0861 5.45082C16.0602 5.44805 16.0353 5.44343 16.0085 5.44066C15.5771 5.39725 15.1033 5.35568 14.5989 5.38616C13.6697 5.44159 12.8245 5.66051 12.2093 5.97088C11.5737 6.29141 11.1775 6.71355 11.171 7.15971V7.16155C11.1682 7.35738 11.2412 7.53936 11.377 7.70285L11.4379 8.05479C11.3788 8.00768 11.3068 7.95872 11.1941 7.89776C10.9438 7.76197 10.6352 7.64651 10.2842 7.57815C9.93321 7.51349 9.54063 7.49317 9.12957 7.53012C8.71944 7.56891 8.28991 7.65667 7.86315 7.798C7.64792 7.86543 7.43547 7.95041 7.22301 8.04371C7.00963 8.13423 6.80087 8.24231 6.59303 8.35592C6.1792 8.58501 5.77923 8.85658 5.40143 9.15679C5.02548 9.45977 4.67262 9.79323 4.35578 10.1516C4.19783 10.3308 4.04541 10.5137 3.90777 10.7049C3.83665 10.7982 3.77199 10.8962 3.70455 10.9913C3.64082 11.0892 3.57801 11.1853 3.51981 11.285C3.28149 11.6776 3.09305 12.0831 2.95634 12.4831C2.81779 12.8822 2.73927 13.2775 2.70971 13.6424C2.68015 14.0072 2.7014 14.3416 2.7559 14.6271C2.80947 14.9125 2.89353 15.148 2.97482 15.3319C3.01731 15.4233 3.05426 15.5037 3.09675 15.5711C3.13555 15.6385 3.16787 15.6949 3.19836 15.7374C3.2584 15.8233 3.2898 15.8685 3.2898 15.8685C3.2898 15.8685 3.49302 16.1235 3.60202 16.2214C3.95119 16.5345 4.73728 17.0315 5.7857 16.4283C7.04566 15.7032 8.50513 14.555 9.69396 13.526C9.6681 13.586 9.64316 13.6452 9.61914 13.7024C9.52954 13.9158 9.43902 14.1144 9.32909 14.2936C9.22194 14.4737 9.09447 14.6298 8.94667 14.749C8.87277 14.8081 8.79333 14.8598 8.7102 14.9033L8.64646 14.9337L8.58088 14.9596C8.55779 14.9698 8.53931 14.9735 8.51899 14.9818C8.49959 14.9882 8.4802 14.9956 8.44879 15.003L8.37674 15.0215C8.37212 15.0233 8.36103 15.0252 8.34625 15.0252C8.31485 15.027 8.26312 15.0233 8.19107 15.0224C8.12179 15.0206 8.02018 15.0298 7.9315 15.0621C7.84929 15.0898 7.7717 15.1296 7.70335 15.1748C7.56664 15.2672 7.46595 15.379 7.38835 15.4907C7.34863 15.548 7.3163 15.6016 7.28305 15.6635L7.24425 15.742L7.20915 15.8177C7.11863 16.0191 7.04843 16.1808 6.9385 16.3156C6.68725 16.6278 6.43323 16.9133 6.1635 17.1276C6.02864 17.2347 5.89285 17.3262 5.75891 17.3973C5.62405 17.4666 5.48918 17.5137 5.36079 17.5349C5.10399 17.5756 4.87953 17.5146 4.72065 17.4241C4.559 17.3363 4.44908 17.2357 4.37888 17.1664C4.30775 17.0952 4.27172 17.0555 4.27172 17.0555C4.27172 17.0555 4.27819 17.0675 4.29205 17.0897C4.3059 17.1119 4.32253 17.1461 4.35208 17.1876C4.36686 17.2089 4.38257 17.232 4.40104 17.2578C4.42044 17.2828 4.44169 17.3096 4.46478 17.3382C4.4888 17.3668 4.51651 17.3955 4.54514 17.4269C4.57747 17.4555 4.60981 17.4888 4.64953 17.5174C4.72342 17.5774 4.81672 17.6338 4.93033 17.6781C4.99684 17.7843 5.07721 17.8703 5.16958 17.934C5.33585 18.2795 6.21523 18.9122 7.32 18.8642C8.6012 18.8078 10.0718 18.2056 12.7801 15.8214L12.8171 16.0357C12.8679 16.3313 13.0461 16.5807 13.3039 16.723C13.7897 16.9909 14.6525 17.3271 15.6326 17.0731C16.2976 16.9003 16.7087 16.5789 16.9415 16.3313C17.1004 16.1623 17.1992 15.948 17.2241 15.7226C17.2241 15.7226 17.7664 9.1531 17.9197 7.17818C17.9308 7.03685 17.9308 6.92139 17.9289 6.84102C17.9289 6.8364 17.9299 6.83271 17.9299 6.82809L17.9252 6.76897C17.9234 6.73849 17.9215 6.72094 17.9215 6.72094L17.9095 6.55375C17.8892 6.44936 17.8458 6.35145 17.7821 6.25908C17.7266 6.17871 17.6555 6.10205 17.5715 6.03092C17.5715 6.03092 17.262 5.74919 16.6588 5.56998L17.7183 0.282604L17.7156 0.204088C17.7156 0.204088 17.5123 -0.134918 16.9248 0.0609108M3.24732 2.5799C3.24732 2.5799 3.25193 2.59191 3.25009 2.60946C3.24454 2.58913 3.24639 2.58082 3.24732 2.5799ZM0.644267 11.1548C0.644267 11.1548 0.641498 11.1576 0.646116 11.153L0.644267 11.1548ZM1.29365 11.443L1.29549 11.4642V11.455L1.29272 11.4365C1.29272 11.4384 1.29272 11.4402 1.29272 11.4421M3.73504 16.0755C3.49487 16.0302 3.2898 15.8695 3.2898 15.8695C3.2898 15.8695 3.2778 15.814 3.2547 15.7106C3.22976 15.6062 3.20575 15.4575 3.18266 15.2654C3.16418 15.0741 3.15125 14.8432 3.16972 14.5818C3.18727 14.3213 3.2353 14.0313 3.32306 13.7264C3.40989 13.4216 3.53274 13.1002 3.69994 12.7769C3.78122 12.6143 3.87452 12.4517 3.97429 12.2891C4.07959 12.1284 4.18304 11.9631 4.30405 11.8042C4.53867 11.4818 4.81025 11.1687 5.10122 10.8657C5.39681 10.5664 5.70996 10.2745 6.04527 10.0112C6.37596 9.74058 6.72789 9.50041 7.08168 9.27872C7.17128 9.22607 7.25996 9.17065 7.35048 9.12169C7.43916 9.06904 7.52968 9.02008 7.61928 8.97297C7.79941 8.87783 7.98046 8.79284 8.15966 8.7134C8.51992 8.55545 8.87647 8.43444 9.22102 8.35038C9.56557 8.2654 9.89533 8.22383 10.202 8.21552C10.5078 8.20998 10.7876 8.24231 11.0324 8.29865C11.2107 8.3393 11.3677 8.39287 11.5063 8.44922L11.7363 9.784C11.4767 10.4676 10.4902 11.9695 7.17128 14.7582C5.37742 16.2657 4.17288 16.1577 3.73504 16.0764M11.7354 11.6157C11.7031 11.7608 11.6532 11.9076 11.583 12.0517C11.498 12.2291 11.389 12.4037 11.2578 12.5746L11.231 12.6097L11.2181 12.6272C11.2181 12.6272 11.2135 12.6328 11.2116 12.6346C11.1996 12.6494 11.1858 12.6642 11.1719 12.678C11.1442 12.7066 11.1137 12.7325 11.0814 12.7565C11.0177 12.8036 10.9475 12.8369 10.8874 12.8507C10.8726 12.8544 10.8579 12.8563 10.8449 12.8581C10.8422 12.8581 10.8394 12.8581 10.8366 12.8581H10.7997L10.795 12.8572L10.783 12.8554L10.7535 12.8507L10.6759 12.8369C10.6288 12.8286 10.5687 12.8184 10.493 12.8184C11.0371 12.3224 11.474 11.8956 11.7354 11.6167M10.4172 13.3967C10.4172 13.3967 10.4172 13.3967 10.4182 13.3967H10.4191C10.4302 13.3911 10.4209 13.3957 10.4172 13.3967ZM10.408 13.3994H10.4062C10.4062 13.3994 10.4062 13.3994 10.408 13.3994ZM9.83621 14.543C9.97754 14.3167 10.0828 14.0839 10.1771 13.865C10.2242 13.756 10.2694 13.6498 10.3129 13.5574C10.3341 13.5131 10.3572 13.4724 10.3738 13.4484L10.3849 13.4336L10.4025 13.4133C10.408 13.4068 10.4126 13.4031 10.4154 13.4004C10.4283 13.4004 10.4579 13.4022 10.4994 13.4096L10.5872 13.4235C10.6038 13.4262 10.6223 13.4281 10.6417 13.4299L10.6722 13.4327H10.6879L10.7128 13.4345H10.7581C10.784 13.4336 10.8107 13.4318 10.8366 13.429C10.8819 13.4235 10.9244 13.4151 10.9659 13.4041C11.134 13.3606 11.28 13.2803 11.4056 13.1842C11.4684 13.1362 11.5266 13.0835 11.5802 13.0263C11.6061 12.9967 11.6319 12.9681 11.6559 12.9367L11.6763 12.9099L11.6892 12.8923L11.7141 12.8563C11.8582 12.6521 11.9876 12.4342 12.0818 12.2088C12.0873 12.1949 12.1113 12.158 12.1381 12.1155L12.213 12.5478C11.1488 13.5482 10.239 14.3583 9.46026 15.015C9.60898 14.8709 9.73368 14.7084 9.83621 14.5458M7.26181 16.5604L7.29136 16.5272L7.31815 16.4958C7.34032 16.469 7.35972 16.4431 7.37727 16.4191C7.4133 16.3701 7.44655 16.3193 7.47703 16.2694C7.538 16.1697 7.58973 16.0708 7.63961 15.9794L7.67748 15.912L7.71535 15.8473C7.73568 15.815 7.76339 15.7762 7.78925 15.7438C7.84283 15.6773 7.90102 15.6219 7.95737 15.5905C7.98508 15.5739 8.01094 15.5637 8.03681 15.5563C8.05621 15.5508 8.06729 15.5508 8.10794 15.5526C8.14581 15.5545 8.20308 15.5637 8.28252 15.5637C8.32224 15.5637 8.36843 15.5619 8.41923 15.5517L8.51437 15.5314C8.76655 15.4741 9.01595 15.3633 9.23672 15.2025C8.18922 16.0736 7.39113 16.6519 6.78517 17.0324C6.7944 17.0241 6.80457 17.0167 6.81473 17.0075C6.96899 16.8708 7.11863 16.7202 7.26181 16.5604ZM5.17604 17.9432C5.33307 18.0504 5.52336 18.1003 5.73859 18.091C7.11586 18.0356 11.5682 14.0839 12.3478 13.3311L12.5695 14.6178C6.91818 19.6383 5.3497 18.1492 5.17604 17.9432ZM16.8879 15.5554C16.8593 15.7706 16.4852 16.1235 16.2912 16.2205C15.1051 16.8089 13.4332 16.7895 13.1247 15.1157C12.902 13.9103 12.0162 10.8444 11.6393 7.98551C11.6375 7.97073 11.6347 7.9578 11.6329 7.94395C11.7834 8.05387 11.9663 8.15086 12.1769 8.23399C12.7829 8.47139 13.6216 8.58963 14.549 8.53513H14.5583C15.4635 8.48155 16.2893 8.27094 16.8934 7.97443C16.9091 7.96704 16.923 7.95872 16.9387 7.95134L16.887 15.5573L16.8879 15.5554ZM17.4301 6.24615C17.4976 6.29233 17.5539 6.34221 17.5982 6.39487C17.6481 6.45583 17.6814 6.52142 17.6962 6.59162L17.7072 6.77729C17.686 7.07011 17.3581 7.35461 16.8445 7.58092C16.3475 7.79984 15.6704 7.96519 14.9324 8.028H14.925C14.1685 8.09174 13.4877 8.03447 12.9981 7.89037C12.4928 7.74165 12.1862 7.49871 12.1991 7.19665C12.212 6.89275 12.5427 6.59531 13.0665 6.35976C13.5727 6.1316 14.2655 5.95887 15.0238 5.89513C15.3785 5.86465 15.7129 5.87204 16.0242 5.8859L15.8783 6.8789L16.1295 6.8364L16.2718 5.89883C16.306 5.9016 16.3401 5.90437 16.3734 5.90806L16.1951 6.82439L16.414 6.78745L16.5849 5.9367C17.1475 6.03461 17.432 6.24522 17.432 6.24522M16.4501 5.51825C16.4122 5.50994 16.3743 5.50163 16.3346 5.49424L16.4297 4.86795L16.4408 4.79775L17.0043 1.09086C17.0172 1.08809 17.0292 1.08532 17.0412 1.08255C17.1881 1.05483 17.2694 1.09086 17.3082 1.12042L16.451 5.51825H16.4501Z" fill="#11112D"/>
<path d="M16.449 9.143C16.2966 9.1393 16.0777 9.1587 15.8311 9.25015C15.7082 9.29634 15.5789 9.36007 15.4514 9.4469C15.4191 9.46907 15.3877 9.49124 15.3563 9.51711C15.3249 9.54112 15.2935 9.56791 15.2602 9.59839L15.2131 9.64181L15.1743 9.68153C15.1401 9.71755 15.1152 9.74619 15.0875 9.77944C15.033 9.84226 14.9849 9.90784 14.9388 9.96603C14.8926 10.0242 14.8492 10.0778 14.8076 10.124L14.7762 10.1572L14.7466 10.185L14.7245 10.2053H14.7235C14.7235 10.2053 14.7319 10.1988 14.7272 10.2025L14.7254 10.2044L14.7217 10.208L14.7134 10.2145L14.682 10.2413C14.6358 10.2746 14.5877 10.3078 14.5342 10.3346C14.4298 10.3937 14.3069 10.4344 14.1804 10.4676C14.1167 10.4824 14.052 10.4963 13.9864 10.5073C13.9217 10.5175 13.8525 10.5249 13.7906 10.5314L13.7444 10.536L13.688 10.5378C13.6548 10.5387 13.6225 10.5406 13.5901 10.5415C13.5236 10.5443 13.459 10.5415 13.3952 10.5415C13.2678 10.5378 13.144 10.5277 13.0294 10.5129C12.7994 10.4842 12.6008 10.4362 12.4586 10.3956C12.3874 10.3743 12.3302 10.3595 12.2905 10.3448C12.2507 10.3309 12.2295 10.3254 12.2295 10.3254C12.2295 10.3254 12.2424 10.3457 12.2692 10.3817C12.2951 10.4159 12.3357 10.4713 12.393 10.5314C12.5057 10.6542 12.6886 10.8149 12.9371 10.9516C13.0608 11.02 13.2012 11.0828 13.3527 11.1327C13.4285 11.1586 13.5079 11.1789 13.5883 11.1974L13.6493 11.2112C13.6613 11.214 13.665 11.2149 13.6853 11.2177L13.713 11.2223L13.7703 11.2315L13.8386 11.2398C13.9291 11.2509 14.015 11.2546 14.1046 11.2528C14.1942 11.2528 14.2848 11.2454 14.3762 11.2315C14.5582 11.2057 14.742 11.1493 14.9175 11.0588C15.0043 11.0126 15.0875 10.9544 15.166 10.8907L15.2233 10.839L15.2556 10.8085L15.2759 10.7863L15.3277 10.7272C15.3434 10.7078 15.3591 10.6884 15.3729 10.669C15.432 10.5923 15.4791 10.5147 15.5198 10.4427C15.5614 10.3706 15.5974 10.305 15.6306 10.2432C15.6463 10.2154 15.662 10.1877 15.6777 10.16C15.6962 10.1314 15.7147 10.1018 15.7322 10.0741C15.7609 10.0252 15.8024 9.9725 15.8385 9.92447C15.9142 9.82655 15.9946 9.73788 16.074 9.65936C16.2329 9.5014 16.3881 9.38132 16.5026 9.29911C16.5599 9.25939 16.6061 9.22429 16.6393 9.20397C16.6717 9.1818 16.6892 9.16979 16.6892 9.16979C16.6892 9.16979 16.668 9.16517 16.6264 9.1587C16.5858 9.15316 16.5257 9.14485 16.449 9.143Z" fill="#11112D"/>
<path d="M15.81 12.1611C15.7943 12.1759 15.7786 12.1906 15.7629 12.2054L15.7407 12.2239L15.713 12.2498C15.6798 12.2738 15.6474 12.3043 15.6096 12.3292C15.5375 12.3818 15.4599 12.4317 15.3759 12.4779C15.2068 12.5703 15.0165 12.6562 14.8161 12.7282C14.7671 12.7467 14.7145 12.7633 14.6655 12.78L14.5935 12.8031L14.5491 12.816L14.527 12.8225L14.5159 12.8262H14.5131C14.5131 12.8262 14.5057 12.8289 14.5186 12.8262H14.5177L14.5131 12.828C14.4087 12.8585 14.3053 12.8853 14.2046 12.9111C14.103 12.9361 14.0032 12.9592 13.9071 12.9786C13.8111 12.998 13.7178 13.0164 13.631 13.0294C13.4554 13.0599 13.3003 13.0765 13.1866 13.0894C13.1312 13.095 13.0832 13.1024 13.0509 13.1033C13.0185 13.106 13.001 13.1088 13.001 13.1088C13.001 13.1088 13.0121 13.1227 13.0324 13.1467C13.0536 13.1698 13.0832 13.2058 13.1303 13.2455C13.1756 13.2852 13.2328 13.3296 13.303 13.3739C13.3732 13.4183 13.4564 13.4617 13.5515 13.5005C13.7418 13.5781 13.9801 13.6316 14.2406 13.6363C14.3709 13.64 14.5057 13.6307 14.6424 13.6095L14.7413 13.5919C14.7736 13.5855 14.8133 13.5762 14.8493 13.567C14.9205 13.5485 14.9879 13.5282 15.0563 13.5032C15.3278 13.4053 15.5902 13.252 15.7971 13.0506C15.9015 12.9518 15.9901 12.8391 16.0613 12.7255C16.0973 12.6682 16.1259 12.61 16.1536 12.5518C16.1647 12.5232 16.1758 12.4955 16.1869 12.4687C16.198 12.44 16.2072 12.4142 16.2146 12.3865C16.2765 12.174 16.2802 12.0077 16.2876 11.8895C16.2903 11.8304 16.2894 11.7824 16.2913 11.75C16.2922 11.7177 16.2913 11.6992 16.2913 11.6992C16.2913 11.6992 16.2303 11.7399 16.1407 11.8239C16.0511 11.9071 15.9366 12.0391 15.8109 12.1611" fill="#11112D"/>
<path d="M6.56365 11.9359C6.40385 12.056 6.34842 12.2602 6.43895 12.3913C6.52947 12.5225 6.73177 12.5317 6.89157 12.4117C7.05137 12.2916 7.1068 12.0874 7.01628 11.9563C6.92575 11.8251 6.72345 11.8159 6.56365 11.9359Z" fill="#11112D"/>
<path d="M5.65381 11.4449C5.52449 11.5419 5.48662 11.7183 5.56883 11.8375C5.65104 11.9566 5.82285 11.9751 5.95217 11.8781C6.08149 11.7811 6.11937 11.6047 6.03715 11.4855C5.95494 11.3664 5.78313 11.3479 5.65381 11.4458" fill="#11112D"/>
<path d="M6.48291 10.4195C6.35359 10.5165 6.31572 10.6929 6.39793 10.8121C6.48014 10.9312 6.65195 10.9497 6.78127 10.8527C6.91059 10.7557 6.94847 10.5793 6.86626 10.4601C6.78405 10.341 6.61223 10.3225 6.48291 10.4204" fill="#11112D"/>
<path d="M5.35535 12.8166C5.22234 12.9717 5.20109 13.1768 5.30732 13.2729C5.41355 13.3699 5.60846 13.3218 5.74147 13.1666C5.87449 13.0115 5.89573 12.8073 5.7895 12.7103C5.68235 12.6133 5.48837 12.6614 5.35535 12.8166Z" fill="#11112D"/>
<path d="M7.81609 9.67228C7.65629 9.79236 7.60087 9.9965 7.69139 10.1277C7.78192 10.2588 7.98421 10.2681 8.14401 10.148C8.30289 10.0279 8.35924 9.82377 8.26872 9.6926C8.17819 9.56143 7.97589 9.55219 7.81609 9.67228Z" fill="#11112D"/>
<path d="M7.76141 11.0981C7.6016 11.2181 7.54618 11.4223 7.6367 11.5535C7.72723 11.6846 7.92952 11.6939 8.08933 11.5738C8.24821 11.4537 8.30455 11.2495 8.21403 11.1184C8.1235 10.9872 7.92121 10.978 7.76141 11.0981Z" fill="#11112D"/>
<path d="M9.01954 10.1773C8.89022 10.2743 8.85234 10.4507 8.93455 10.5699C9.01676 10.6891 9.18858 10.7075 9.3179 10.6105C9.44722 10.5135 9.48509 10.3371 9.40288 10.218C9.32067 10.0988 9.14886 10.0803 9.01954 10.1782" fill="#11112D"/>
<path d="M10.2605 9.20809C10.1413 9.25428 10.0693 9.3642 10.0998 9.45196C10.1293 9.53971 10.2503 9.57389 10.3686 9.5277C10.4877 9.48151 10.5598 9.37159 10.5293 9.28384C10.4997 9.19609 10.3787 9.16191 10.2605 9.20809Z" fill="#11112D"/>
<path d="M3.89762 14.5207C3.8228 14.6269 3.82095 14.7571 3.89393 14.8116C3.9669 14.8652 4.08791 14.8227 4.16273 14.7165C4.23755 14.6103 4.2394 14.48 4.16642 14.4255C4.09345 14.3719 3.97244 14.4144 3.89762 14.5207Z" fill="#11112D"/>
<path d="M6.22999 13.2511C6.15425 13.3573 6.15333 13.4876 6.2263 13.5421C6.29927 13.5957 6.42028 13.5532 6.4951 13.4469C6.56992 13.3407 6.57177 13.2105 6.49879 13.156C6.42582 13.1024 6.30481 13.1449 6.22999 13.2511Z" fill="#11112D"/>
<path d="M9.0324 8.95938C8.8726 9.07947 8.81717 9.28361 8.9077 9.41478C8.99822 9.54595 9.20052 9.55518 9.36033 9.4351C9.51921 9.31502 9.57555 9.11087 9.48503 8.97971C9.3945 8.84854 9.1922 8.8393 9.0324 8.95938Z" fill="#11112D"/>
<path d="M14.4706 6.59116C14.4669 6.45722 14.3348 6.35931 14.1759 6.37224C14.017 6.38517 13.8914 6.50526 13.8951 6.6392C13.8988 6.77314 14.0309 6.87105 14.1898 6.85812C14.3486 6.84519 14.4743 6.7251 14.4706 6.59116Z" fill="#11112D"/>
<path d="M13.5216 7.35662C13.3627 7.36955 13.2371 7.48963 13.2408 7.62357C13.2445 7.75751 13.3766 7.85542 13.5355 7.84249C13.6943 7.82956 13.82 7.70948 13.8163 7.57554C13.8126 7.4416 13.6805 7.34368 13.5216 7.35662Z" fill="#11112D"/>
<path d="M14.7644 7.27227C14.636 7.28335 14.5344 7.39051 14.5372 7.51244C14.5409 7.63437 14.648 7.72489 14.7764 7.71381C14.9048 7.70272 15.0064 7.59557 15.0036 7.47364C14.9999 7.35171 14.8928 7.26211 14.7644 7.27227Z" fill="#11112D"/>
<path d="M16.0148 7.1436C15.915 7.12327 15.819 7.16761 15.8014 7.24428C15.7829 7.32003 15.8495 7.39854 15.9492 7.41886C16.049 7.43919 16.145 7.39485 16.1626 7.31818C16.1811 7.24243 16.1146 7.16392 16.0148 7.1436Z" fill="#11112D"/>
<path d="M15.2999 6.41521C15.1411 6.42814 15.0154 6.54823 15.0191 6.68216C15.0228 6.8161 15.1549 6.91402 15.3138 6.90109C15.4727 6.88815 15.5983 6.76807 15.5946 6.63413C15.5909 6.50019 15.4588 6.40228 15.2999 6.41521Z" fill="#11112D"/>
<path d="M4.68943 13.834C4.56288 13.9901 4.55734 14.1998 4.67742 14.3032C4.7975 14.4057 4.99795 14.3632 5.1245 14.2071C5.25105 14.051 5.25659 13.8413 5.13651 13.7379C5.01642 13.6344 4.81598 13.6778 4.68943 13.834Z" fill="#11112D"/>
<path d="M4.62095 13.1825C4.74288 13.0217 4.74011 12.8121 4.61633 12.7141C4.49255 12.6162 4.29395 12.6661 4.17202 12.8268C4.05101 12.9876 4.05286 13.1973 4.17664 13.2952C4.30042 13.3931 4.49902 13.3432 4.62095 13.1825Z" fill="#11112D"/>
<path d="M5.34401 3.74377C5.45855 3.53039 5.59526 3.35488 5.6904 3.2311C5.78924 3.10455 5.84559 3.0325 5.84559 3.0325C5.84559 3.0325 5.82342 3.03712 5.78278 3.04543C5.74306 3.05559 5.68209 3.06945 5.6082 3.09531C5.46133 3.14796 5.25071 3.23387 5.02625 3.42693C4.91633 3.52577 4.79994 3.64955 4.70941 3.83798C4.66415 3.9322 4.62905 4.0449 4.61704 4.17976C4.60411 4.31278 4.62905 4.4735 4.70018 4.6176C4.77038 4.76355 4.88584 4.87625 5.00316 4.94737C5.12139 5.02127 5.24333 5.05822 5.35879 5.07577C5.59157 5.11272 5.8031 5.073 5.99616 5.01388C6.09222 4.98155 6.1846 4.94275 6.27235 4.89934L6.33701 4.86609L6.36103 4.85223L6.37488 4.84392L6.40167 4.82729L6.4571 4.79311L6.52453 4.74785C6.61228 4.68781 6.68525 4.62499 6.75823 4.55387C6.83028 4.48367 6.89678 4.40792 6.9559 4.32663C7.07414 4.16406 7.16559 3.98209 7.21639 3.78718C7.26812 3.59505 7.27643 3.38351 7.22009 3.19138C7.1896 3.09531 7.14342 3.00756 7.0843 2.9392C7.02611 2.86993 6.95775 2.82374 6.89402 2.79603C6.76469 2.7406 6.65754 2.74615 6.57625 2.75723C6.53561 2.7637 6.50051 2.77201 6.47095 2.7831C6.44139 2.79233 6.41645 2.80157 6.39705 2.81081C6.35826 2.82743 6.33886 2.83852 6.33886 2.83852C6.33886 2.83852 6.3601 2.84498 6.40075 2.85699C6.44047 2.86715 6.49774 2.88748 6.56332 2.91703C6.62798 2.94752 6.70096 2.9937 6.74991 3.05744C6.7998 3.12118 6.81457 3.19415 6.80719 3.27451C6.79795 3.35673 6.76654 3.45464 6.70742 3.55255C6.652 3.65139 6.57071 3.74931 6.47742 3.83891C6.42938 3.88232 6.3795 3.92574 6.32592 3.96546C6.27327 4.00425 6.21231 4.04305 6.15781 4.07446L6.11809 4.09755L6.06359 4.12526L6.03496 4.13912L6.0211 4.14651C6.0211 4.14651 6.01094 4.15205 6.02756 4.14281H6.02572L6.02295 4.14466L6.01648 4.14743L5.96752 4.17052C5.90286 4.20008 5.83728 4.22595 5.77354 4.24535C5.64699 4.28876 5.51952 4.30724 5.42068 4.30354C5.37172 4.30077 5.33016 4.29153 5.30245 4.28322C5.27381 4.27306 5.2618 4.26567 5.24979 4.26013C5.23778 4.25458 5.2267 4.24073 5.21746 4.20747C5.20822 4.17514 5.21007 4.12803 5.21746 4.07538C5.23409 3.97008 5.28397 3.85184 5.33939 3.74654" fill="#11112D"/>
<path d="M3.75736 6.60858C3.8174 6.48111 3.89315 6.36841 3.94488 6.2899C3.97259 6.24925 3.99384 6.21785 4.00862 6.19568C4.0234 6.17259 4.03079 6.16058 4.03079 6.16058C4.03079 6.16058 4.01693 6.16242 3.99199 6.1652C3.96705 6.17074 3.9301 6.17258 3.88484 6.18736C3.79154 6.2123 3.66222 6.25757 3.51904 6.37026C3.44976 6.42938 3.37494 6.50235 3.3149 6.62151C3.28534 6.68063 3.26225 6.75361 3.25301 6.84136C3.24378 6.92819 3.25948 7.03534 3.30659 7.13233C3.35277 7.23025 3.43037 7.30507 3.50611 7.35218C3.58371 7.40113 3.66222 7.42515 3.73612 7.43716C3.88391 7.46118 4.01785 7.43716 4.13794 7.39929C4.25617 7.35864 4.3661 7.30414 4.46401 7.23302C4.56932 7.15912 4.65615 7.07044 4.72912 6.96791C4.80117 6.86538 4.85659 6.75084 4.88615 6.62706C4.91664 6.50513 4.91941 6.37026 4.88061 6.24741C4.84181 6.1227 4.74852 6.02849 4.66631 5.998C4.58317 5.96475 4.51574 5.97399 4.46678 5.98322C4.4169 5.99246 4.3818 6.01186 4.35871 6.02294C4.33561 6.03495 4.32453 6.04326 4.32453 6.04326C4.32453 6.04326 4.33746 6.04788 4.36148 6.05712C4.38457 6.06451 4.41967 6.08114 4.45662 6.10146C4.49357 6.12178 4.53422 6.15504 4.55731 6.19291C4.58133 6.2317 4.5804 6.26958 4.57116 6.30837C4.561 6.34902 4.53976 6.39797 4.50466 6.4497C4.4714 6.50143 4.42337 6.55223 4.36979 6.60027C4.31621 6.64645 4.25155 6.69172 4.18874 6.72589C4.11761 6.76377 4.04464 6.79702 3.97167 6.81919C3.90054 6.84505 3.83311 6.85337 3.78415 6.85429C3.7666 6.85337 3.74905 6.85152 3.73243 6.8506C3.72227 6.84967 3.72319 6.85337 3.72042 6.86076C3.71765 6.86815 3.7121 6.87092 3.70563 6.85891C3.69917 6.8469 3.6964 6.82473 3.69917 6.7961C3.70286 6.73975 3.7278 6.67047 3.75644 6.60673" fill="#11112D"/>
<path d="M8.51062 3.70702C8.5799 3.59064 8.65195 3.48718 8.70183 3.41328C8.75263 3.33938 8.78127 3.29227 8.78127 3.29227C8.78127 3.29227 8.76833 3.2932 8.74432 3.29504C8.72122 3.29782 8.6852 3.30059 8.64271 3.31075C8.55588 3.3283 8.43487 3.36248 8.29724 3.44469C8.22888 3.48718 8.15499 3.53983 8.08386 3.62758C8.04783 3.671 8.01366 3.72457 7.98502 3.80217C7.97117 3.84096 7.96008 3.88715 7.95824 3.9435C7.95639 3.99892 7.96562 4.06543 7.99241 4.12916C8.0192 4.1929 8.06077 4.24925 8.1051 4.28712C8.14944 4.32592 8.1947 4.34993 8.23627 4.36748C8.31941 4.40074 8.39146 4.40905 8.45797 4.40998C8.59006 4.41182 8.70183 4.38042 8.80713 4.34347C8.85886 4.32315 8.90874 4.30005 8.95678 4.27604C8.98264 4.2631 9.00019 4.25387 9.03067 4.23539L9.09256 4.19475C9.19048 4.13009 9.26807 4.05988 9.34197 3.97767C9.41402 3.89546 9.47498 3.80401 9.52117 3.70333C9.56551 3.60172 9.59876 3.4918 9.58952 3.3597C9.58398 3.29504 9.56274 3.22207 9.52117 3.16757C9.4796 3.11307 9.42695 3.08351 9.38445 3.07243C9.29763 3.05211 9.23943 3.0752 9.19602 3.0909C9.15168 3.10753 9.12212 3.1297 9.1018 3.14355C9.08147 3.15833 9.07224 3.16665 9.07224 3.16665C9.07224 3.16665 9.08425 3.17034 9.10734 3.17773C9.12951 3.18327 9.16276 3.19621 9.19971 3.21099C9.23574 3.22577 9.27916 3.25348 9.29763 3.28304C9.30594 3.29874 9.30409 3.31075 9.29578 3.31629C9.28747 3.32183 9.281 3.32368 9.27176 3.33476C9.25514 3.35601 9.22188 3.40035 9.17847 3.44099C9.13505 3.48348 9.08148 3.52505 9.02328 3.56569C8.96601 3.60541 8.89581 3.64513 8.83577 3.67654L8.77758 3.7061C8.76649 3.7098 8.74339 3.7218 8.72769 3.72919C8.69167 3.74582 8.65657 3.7606 8.62147 3.77353C8.5605 3.79847 8.50231 3.81325 8.45427 3.82249C8.4709 3.78369 8.49122 3.7449 8.51247 3.70795M8.42101 3.94996C8.41732 3.94165 8.42102 3.92133 8.42564 3.89916C8.43857 3.94257 8.42471 3.96289 8.42101 3.94996Z" fill="#11112D"/>
<path d="M11.1035 2.90051C11.1497 2.80907 11.206 2.72963 11.2448 2.67513C11.2846 2.6197 11.3086 2.5846 11.3086 2.5846C11.3086 2.5846 11.2993 2.58645 11.2809 2.58922C11.2633 2.59384 11.2365 2.59569 11.2051 2.60677C11.1395 2.62617 11.0481 2.66035 10.9465 2.73979C10.8975 2.78135 10.8449 2.83308 10.8015 2.91529C10.7802 2.95686 10.7636 3.00674 10.7562 3.06771C10.7488 3.12867 10.759 3.20442 10.7922 3.27185C10.8245 3.34021 10.88 3.39286 10.9335 3.42519C10.988 3.45844 11.0425 3.47414 11.0952 3.48153C11.1987 3.49631 11.2919 3.47876 11.3769 3.45198C11.4601 3.42334 11.5386 3.38362 11.6069 3.33466C11.6818 3.28293 11.7436 3.22105 11.7963 3.14992C11.848 3.07879 11.8887 2.99843 11.9118 2.91252C11.9349 2.82754 11.9404 2.73332 11.9145 2.64557C11.8896 2.55597 11.8231 2.48946 11.7649 2.46821C11.7067 2.4442 11.6587 2.45066 11.6245 2.45713C11.5894 2.46359 11.5644 2.47653 11.5478 2.48392C11.5321 2.49315 11.5229 2.49777 11.5229 2.49777C11.5229 2.49777 11.5321 2.50147 11.5497 2.50701C11.5663 2.51163 11.5912 2.52271 11.6189 2.53564C11.6467 2.5495 11.6762 2.57167 11.6947 2.59846C11.7132 2.62617 11.7132 2.6548 11.7076 2.68344C11.6956 2.74441 11.6402 2.83308 11.5598 2.90236C11.5201 2.93654 11.473 2.97072 11.4259 2.99658C11.3732 3.02522 11.3197 3.04923 11.2661 3.06678C11.2134 3.08618 11.1626 3.09265 11.1238 3.09357C11.1054 3.09357 11.0906 3.08988 11.0813 3.08895C11.0721 3.08711 11.0721 3.08895 11.0693 3.09265C11.0675 3.09634 11.0629 3.09727 11.0582 3.08618C11.0546 3.07602 11.0536 3.05755 11.0564 3.03722C11.0619 2.99473 11.0813 2.94485 11.1044 2.89959" fill="#11112D"/>
<path d="M2.18312 15.0027C2.09629 14.708 1.86444 14.4863 1.5864 14.3709L0.9204 14.0938C0.838188 14.1122 0.78461 14.1963 0.802161 14.2785C0.807703 14.3034 0.81417 14.3311 0.820636 14.3626C3.65923 22.9365 12.1658 19.4624 12.1658 19.4624C12.1658 19.4624 4.15619 21.659 2.18312 15.0027Z" fill="#11112D"/>
</svg>
