<svg width="20" height="20" viewBox="0 0 20 20" fill="none" xmlns="http://www.w3.org/2000/svg">
<path d="M7.5 16.875C7.5 17.1222 7.42669 17.3639 7.28934 17.5695C7.15198 17.775 6.95676 17.9352 6.72835 18.0299C6.49995 18.1245 6.24861 18.1492 6.00614 18.101C5.76366 18.0527 5.54093 17.9337 5.36612 17.7589C5.1913 17.5841 5.07225 17.3613 5.02402 17.1189C4.97579 16.8764 5.00054 16.6251 5.09515 16.3966C5.18976 16.1682 5.34998 15.973 5.55554 15.8357C5.7611 15.6983 6.00277 15.625 6.25 15.625C6.58152 15.625 6.89946 15.7567 7.13388 15.9911C7.3683 16.2255 7.5 16.5435 7.5 16.875ZM14.375 15.625C14.1278 15.625 13.8861 15.6983 13.6805 15.8357C13.475 15.973 13.3148 16.1682 13.2201 16.3966C13.1255 16.6251 13.1008 16.8764 13.149 17.1189C13.1972 17.3613 13.3163 17.5841 13.4911 17.7589C13.6659 17.9337 13.8887 18.0527 14.1311 18.101C14.3736 18.1492 14.6249 18.1245 14.8534 18.0299C15.0818 17.9352 15.277 17.775 15.4143 17.5695C15.5517 17.3639 15.625 17.1222 15.625 16.875C15.625 16.5435 15.4933 16.2255 15.2589 15.9911C15.0245 15.7567 14.7065 15.625 14.375 15.625ZM17.8204 5.24864C17.7621 5.1714 17.6867 5.10874 17.6001 5.0656C17.5136 5.02245 17.4181 4.99999 17.3214 5H3.77502L3.14117 2.78156C3.06575 2.52084 2.90786 2.29157 2.69117 2.12814C2.47448 1.9647 2.21066 1.87588 1.93924 1.875H0.625C0.45924 1.875 0.300268 1.94085 0.183058 2.05806C0.065848 2.17527 0 2.33424 0 2.5C0 2.66576 0.065848 2.82473 0.183058 2.94194C0.300268 3.05915 0.45924 3.125 0.625 3.125H1.93924L2.69943 5.78552C2.70149 5.79323 2.70363 5.8009 2.70599 5.80853L4.76502 13.0151C4.87809 13.4062 5.11489 13.7501 5.43992 13.9953C5.76496 14.2405 6.1607 14.3737 6.56784 14.375H14.0572C14.4643 14.3737 14.86 14.2405 15.1851 13.9953C15.5101 13.7501 15.7469 13.4062 15.86 13.0151L17.9224 5.7967C17.9489 5.70368 17.9535 5.60577 17.9358 5.51067C17.9181 5.41557 17.8786 5.32587 17.8204 5.24864Z" fill="#11112D"/>
</svg>
