<svg width="20" height="20" viewBox="0 0 20 20" fill="none" xmlns="http://www.w3.org/2000/svg">
<g clip-path="url(#clip0_5879_194437)">
<path d="M10 10.8327C11.9963 10.8327 13.8127 11.4108 15.1481 12.2256C15.8155 12.6328 16.3851 13.1129 16.7967 13.6339C17.2017 14.1466 17.5 14.7602 17.5 15.416C17.5 16.1201 17.1574 16.6753 16.6644 17.0709C16.1973 17.4459 15.5818 17.694 14.9273 17.8673C13.6128 18.2154 11.8575 18.3327 10 18.3327C8.14251 18.3327 6.38722 18.2154 5.07263 17.8673C4.41818 17.694 3.8027 17.4459 3.33555 17.0709C2.84262 16.6753 2.5 16.1201 2.5 15.416C2.5 14.7602 2.79838 14.1466 3.20331 13.6339C3.6149 13.1129 4.18452 12.6328 4.85189 12.2256C6.18722 11.4108 8.00378 10.8327 10 10.8327ZM10 1.66602C12.3012 1.66602 14.1667 3.5315 14.1667 5.83268C14.1667 8.13387 12.3012 9.99935 10 9.99935C7.69882 9.99935 5.83333 8.13387 5.83333 5.83268C5.83333 3.5315 7.69882 1.66602 10 1.66602Z" fill="#11112D"/>
</g>
<defs>
<clipPath id="clip0_5879_194437">
<rect width="20" height="20" fill="white"/>
</clipPath>
</defs>
</svg>
